<?xml version="1.0" encoding="UTF-8"?>
<svg version="1.1" xmlns="http://www.w3.org/2000/svg" width="250" height="60">
<path d="M0 0 C0.52980469 0.32097656 1.05960938 0.64195313 1.60546875 0.97265625 C1.93546875 0.31265625 2.26546875 -0.34734375 2.60546875 -1.02734375 C4.91546875 -1.02734375 7.22546875 -1.02734375 9.60546875 -1.02734375 C9.60546875 10.85265625 9.60546875 22.73265625 9.60546875 34.97265625 C7.29546875 34.97265625 4.98546875 34.97265625 2.60546875 34.97265625 C2.60546875 33.98265625 2.60546875 32.99265625 2.60546875 31.97265625 C1.84234375 32.46765625 1.07921875 32.96265625 0.29296875 33.47265625 C-5.17155742 35.69551436 -10.8338676 36.131181 -16.51953125 34.28125 C-21.77654168 31.57343644 -24.56358247 27.4655026 -26.39453125 21.97265625 C-27.13411255 15.1466846 -26.54422071 9.57597944 -22.39453125 3.97265625 C-17.02120425 -2.33716489 -7.44880192 -3.1958155 0 0 Z M-16.39453125 8.97265625 C-19.12737706 12.48631514 -18.79767625 16.72210572 -18.39453125 20.97265625 C-17.52064984 24.20601745 -16.56184658 24.857129 -13.76953125 26.78515625 C-9.59523188 28.25389121 -6.57544597 28.50079346 -2.39453125 26.97265625 C0.46641094 24.52893479 2.2464807 22.73998203 3.01171875 18.97265625 C3.21434405 14.51489966 2.42826353 11.40033563 -0.39453125 7.97265625 C-5.41599336 4.20655966 -11.71426361 5.22844214 -16.39453125 8.97265625 Z " fill="#461E97" transform="translate(240.39453125,13.02734375)"/>
<path d="M0 0 C3.37225919 3.19932282 5.9539906 5.86197181 7.4375 10.3125 C7.4375 13.2825 7.4375 16.2525 7.4375 19.3125 C-0.8125 19.3125 -9.0625 19.3125 -17.5625 19.3125 C-13.5625 12.3125 -13.5625 12.3125 -10.546875 11.41015625 C-8.94585937 11.39275391 -8.94585937 11.39275391 -7.3125 11.375 C-6.23484375 11.34535156 -5.1571875 11.31570312 -4.046875 11.28515625 C-3.22703125 11.29417969 -2.4071875 11.30320312 -1.5625 11.3125 C-4.31928693 7.97094008 -5.69404822 6.43656454 -10.0625 5.8125 C-13.69523269 6.33146181 -15.66742282 7.09861745 -18.5625 9.3125 C-20.40688013 13.00126027 -20.05038734 17.28580313 -19.5625 21.3125 C-17.67734777 23.88887471 -16.36915143 24.90917428 -13.5625 26.3125 C-11.44696939 26.3274921 -11.44696939 26.3274921 -9.125 26.0625 C-8.34253906 25.99546875 -7.56007813 25.9284375 -6.75390625 25.859375 C-4.20287768 25.22275468 -3.22642419 24.30278875 -1.5625 22.3125 C0.4375 23.3125 2.4375 24.3125 4.4375 25.3125 C4.10216224 28.44231912 3.43683599 29.31311159 1.0625 31.5 C-4.33630955 35.22774945 -10.21815859 35.01206616 -16.5625 34.3125 C-21.56860487 32.51481661 -25.56282024 29.33005978 -27.93359375 24.4609375 C-29.52719108 19.01697148 -29.63902975 13.2515215 -27.6796875 7.90234375 C-21.93748748 -2.27009668 -10.45530706 -4.95251387 0 0 Z " fill="#461E98" transform="translate(65.5625,13.6875)"/>
<path d="M0 0 C5.15085024 2.71038189 7.92633526 6.91572453 9.7265625 12.31640625 C10.26041392 18.28116919 10.27926399 23.2738622 6.7265625 28.31640625 C1.93532203 33.03001088 -1.18226375 35.46429918 -8.0234375 35.56640625 C-12.88938816 35.50827064 -16.24058668 35.26727271 -20.2734375 32.31640625 C-24.8221909 27.56089133 -27.00630879 24.0322148 -27.6484375 17.50390625 C-27.48628968 12.13275977 -25.48646595 7.59718047 -21.7421875 3.73828125 C-15.49722949 -1.58830058 -7.91540313 -2.38006108 0 0 Z M-17.10546875 9.625 C-19.37180326 12.9070162 -19.57806804 16.41996916 -19.2734375 20.31640625 C-17.62644963 24.52537526 -15.38629993 26.49909494 -11.2734375 28.31640625 C-6.64970738 28.89437252 -3.95384678 28.1789468 -0.2734375 25.31640625 C2.25820767 21.15029543 2.58302122 17.07356805 1.7265625 12.31640625 C-0.45502895 9.56071178 -2.14521244 7.88051878 -5.2734375 6.31640625 C-10.19316302 5.74874561 -13.38122965 6.12042112 -17.10546875 9.625 Z " fill="#461E97" transform="translate(180.2734375,12.68359375)"/>
<path d="M0 0 C1.12148437 -0.02578125 2.24296875 -0.0515625 3.3984375 -0.078125 C8.20188828 0.41036152 10.69297891 2.21442101 13.875 5.75 C16.56336961 9.59052802 16.74586494 12.43960729 16.72265625 17.01171875 C16.71943359 18.12998047 16.71621094 19.24824219 16.71289062 20.40039062 C16.70032227 22.15125977 16.70032227 22.15125977 16.6875 23.9375 C16.68298828 25.11634766 16.67847656 26.29519531 16.67382812 27.50976562 C16.66203273 30.42322789 16.6455727 33.33658863 16.625 36.25 C13.985 36.25 11.345 36.25 8.625 36.25 C8.61098145 35.19087402 8.61098145 35.19087402 8.59667969 34.11035156 C8.54294341 30.90619455 8.45930243 27.70349243 8.375 24.5 C8.36082031 23.38882813 8.34664062 22.27765625 8.33203125 21.1328125 C8.29980469 20.06289063 8.26757812 18.99296875 8.234375 17.890625 C8.21342773 16.90610352 8.19248047 15.92158203 8.17089844 14.90722656 C7.47840836 11.5364475 6.32621498 10.32943956 3.625 8.25 C0.125 7.58333333 0.125 7.58333333 -3.375 8.25 C-6.07621498 10.32943956 -7.22840836 11.5364475 -7.92089844 14.90722656 C-7.9418457 15.89174805 -7.96279297 16.87626953 -7.984375 17.890625 C-8.01660156 18.96054687 -8.04882812 20.03046875 -8.08203125 21.1328125 C-8.10330078 22.79957031 -8.10330078 22.79957031 -8.125 24.5 C-8.15464844 25.62664063 -8.18429688 26.75328125 -8.21484375 27.9140625 C-8.28548912 30.69278021 -8.33821277 33.47066148 -8.375 36.25 C-11.015 36.25 -13.655 36.25 -16.375 36.25 C-16.46270383 32.39597871 -16.51562735 28.54221709 -16.5625 24.6875 C-16.58763672 23.60146484 -16.61277344 22.51542969 -16.63867188 21.39648438 C-16.70631057 13.9787746 -16.29869434 8.72188702 -11.375 2.875 C-7.79882095 -0.03064548 -4.4532269 0.0611427 0 0 Z " fill="#461E97" transform="translate(94.375,11.75)"/>
<path d="M0 0 C2.57987322 1.71120705 4.84838147 3.91139608 6.91796875 6.2109375 C5.86921877 8.83281244 5.26865562 10.00465111 2.79296875 11.4609375 C2.17421875 11.7084375 1.55546875 11.9559375 0.91796875 12.2109375 C0.07234375 11.3859375 -0.77328125 10.5609375 -1.64453125 9.7109375 C-4.24751961 7.54996603 -5.10693507 7.20744223 -8.64453125 6.7109375 C-12.25644161 7.23630628 -14.2360819 7.9509189 -17.08203125 10.2109375 C-18.56220682 14.6514642 -18.74012038 19.1269886 -17.33203125 23.5859375 C-15.76212574 25.62681466 -14.46536314 26.24916817 -12.08203125 27.2109375 C-8.98365986 27.37203133 -6.07674187 27.02200496 -3.08203125 26.2109375 C-0.97761065 24.33237483 -0.97761065 24.33237483 -0.08203125 22.2109375 C4.66796875 24.0859375 4.66796875 24.0859375 6.91796875 25.2109375 C6.66229996 28.66246611 5.65599801 29.45582319 3.04296875 31.8984375 C-2.58393497 36.06234625 -8.29742293 35.84980645 -15.08203125 35.2109375 C-19.9891614 32.89120325 -22.89313605 29.49316819 -26.08203125 25.2109375 C-28.00774118 19.43380771 -27.98390744 13.4010081 -25.39453125 7.8359375 C-20.33307647 -1.048531 -9.44763205 -3.58052847 0 0 Z " fill="#461D97" transform="translate(143.08203125,12.7890625)"/>
<path d="M0 0 C3.77047935 2.01092232 5.88505129 4.45602774 7.69140625 8.28125 C5.38140625 9.60125 3.07140625 10.92125 0.69140625 12.28125 C0.07265625 11.641875 -0.54609375 11.0025 -1.18359375 10.34375 C-3.91757362 7.6901813 -4.78243706 7.33088742 -8.62109375 6.96875 C-13.00292899 7.34009197 -14.46815941 7.93956254 -17.30859375 11.28125 C-18.74820021 15.45788602 -18.58298197 18.50140979 -17.12109375 22.65625 C-15.23274246 25.39110359 -14.46199752 26.38027749 -11.30859375 27.28125 C-7.3923489 27.60760374 -4.60281866 27.5166169 -1.30859375 25.28125 C-0.64859375 24.29125 0.01140625 23.30125 0.69140625 22.28125 C2.69140625 23.28125 4.69140625 24.28125 6.69140625 25.28125 C6.43301785 28.76949341 5.42673889 29.52339247 2.75390625 31.96875 C-2.74294933 36.11943687 -7.54923133 35.90439225 -14.30859375 35.28125 C-19.22982425 33.67858378 -22.41629005 30.50846311 -25.30859375 26.28125 C-27.63272137 21.63299477 -26.72343669 15.34002924 -26.30859375 10.28125 C-21.37245721 -0.32230256 -10.87263851 -3.38505159 0 0 Z " fill="#451D96" transform="translate(26.30859375,12.71875)"/>
<path d="M0 0 C4 4.10810811 4 4.10810811 4 7 C1.03 7.66 -1.94 8.32 -5 9 C-5.33 17.91 -5.66 26.82 -6 36 C-8.64 36 -11.28 36 -14 36 C-14.08742801 31.79179855 -14.14053641 27.58383224 -14.1875 23.375 C-14.21263672 22.18519531 -14.23777344 20.99539062 -14.26367188 19.76953125 C-14.3568192 8.65395074 -14.3568192 8.65395074 -11 4 C-7.47924981 1.09155419 -4.64481694 -1.10008822 0 0 Z " fill="#461E98" transform="translate(209,12)"/>
</svg>
