<?xml version="1.0" encoding="UTF-8"?>
<svg version="1.1" xmlns="http://www.w3.org/2000/svg" width="159" height="44">
<path d="M0 0 C52.47 0 104.94 0 159 0 C159 14.52 159 29.04 159 44 C106.53 44 54.06 44 0 44 C0 29.48 0 14.96 0 0 Z " fill="#371775" transform="translate(0,0)"/>
<path d="M0 0 C4.72299053 0.74266105 7.58060749 1.35949407 10.5859375 5.41015625 C9.5959375 6.07015625 8.6059375 6.73015625 7.5859375 7.41015625 C6.9259375 6.75015625 6.2659375 6.09015625 5.5859375 5.41015625 C0.92364865 4.94611165 0.92364865 4.94611165 -3.3515625 6.53515625 C-4.93631651 9.33178097 -4.87353673 11.25947585 -4.4140625 14.41015625 C-2.89511444 16.5077979 -2.89511444 16.5077979 -0.4140625 17.41015625 C2.46572919 17.17017361 5.00282614 16.57675949 7.7734375 15.78515625 C9.5859375 15.41015625 9.5859375 15.41015625 12.5859375 16.41015625 C12.67230469 15.74628906 12.75867188 15.08242188 12.84765625 14.3984375 C13.53924362 10.05222328 14.17206614 7.00661792 16.7109375 3.34765625 C20.63599143 0.70251121 22.83794025 0.41015625 27.5859375 0.41015625 C31.20684506 1.98446389 32.37849034 3.09898551 34.5859375 6.41015625 C34.5859375 7.40015625 34.5859375 8.39015625 34.5859375 9.41015625 C35.5759375 9.41015625 36.5659375 9.41015625 37.5859375 9.41015625 C38.2046875 8.01796875 38.2046875 8.01796875 38.8359375 6.59765625 C41.46692245 1.80550509 41.46692245 1.80550509 44.5859375 0.41015625 C49.33402726 0.11618446 52.64700433 0.76463969 56.5859375 3.47265625 C59.19014597 7.29758744 59.35287163 9.82652751 59.5859375 14.41015625 C60.2459375 14.41015625 60.9059375 14.41015625 61.5859375 14.41015625 C61.71548828 13.50523438 61.71548828 13.50523438 61.84765625 12.58203125 C62.55180695 8.57677041 63.05076262 6.02178468 65.7734375 2.91015625 C69.22179201 1.07103385 71.67188725 0.4788238 75.5859375 0.41015625 C79.0234375 1.84765625 79.0234375 1.84765625 81.5859375 3.41015625 C81.2559375 4.73015625 80.9259375 6.05015625 80.5859375 7.41015625 C80.0703125 7.08015625 79.5546875 6.75015625 79.0234375 6.41015625 C75.7500526 5.06722911 73.08954605 5.15062969 69.5859375 5.41015625 C67.29018147 7.70591228 67.26254151 8.4185815 66.9609375 11.53515625 C66.7753125 13.45328125 66.7753125 13.45328125 66.5859375 15.41015625 C69.99799346 17.50988299 72.6159622 17.74098752 76.5859375 17.41015625 C78.88824516 16.51184609 78.88824516 16.51184609 80.5859375 15.41015625 C81.5859375 18.41015625 81.5859375 18.41015625 80.5859375 21.41015625 C81.56175781 21.54292969 82.53757812 21.67570312 83.54296875 21.8125 C85.45142578 22.07740234 85.45142578 22.07740234 87.3984375 22.34765625 C89.29529297 22.60869141 89.29529297 22.60869141 91.23046875 22.875 C94.5859375 23.41015625 94.5859375 23.41015625 97.5859375 24.41015625 C97.5859375 26.06015625 97.5859375 27.71015625 97.5859375 29.41015625 C62.6059375 29.41015625 27.6259375 29.41015625 -8.4140625 29.41015625 C-8.4140625 21.49015625 -8.4140625 13.57015625 -8.4140625 5.41015625 C-2.4140625 0.41015625 -2.4140625 0.41015625 0 0 Z " fill="#631C90" transform="translate(8.4140625,14.58984375)"/>
<path d="M0 0 C8.58 0 17.16 0 26 0 C26.66 1.98 27.32 3.96 28 6 C33.28 6 38.56 6 44 6 C44 6.66 44 7.32 44 8 C43.34 8 42.68 8 42 8 C42 9.32 42 10.64 42 12 C47.28 12 52.56 12 58 12 C58 12.99 58 13.98 58 15 C55 16 52 17 49 18 C48.63451555 19.32488113 48.3062434 20.66018514 48 22 C46.4375 24.25 46.4375 24.25 45 26 C45 25.34 45 24.68 45 24 C44.34 24 43.68 24 43 24 C42.5875 23.05125 42.175 22.1025 41.75 21.125 C40.27389609 18.06473796 40.27389609 18.06473796 38.3125 16.5625 C34.71830603 15.6882366 31.55240711 16.02583475 28 17 C23.09501877 20.04904239 22.33285516 25.7089689 21 31 C19.96875 31.144375 18.9375 31.28875 17.875 31.4375 C14.09903538 31.9130914 14.09903538 31.9130914 10.875 32.8125 C8 33 8 33 5.125 31.4375 C3 29 3 29 2.4375 26 C3 23 3 23 4.5625 20.625 C7.87969422 18.41353719 10.08945759 18.57339537 14 19 C14.99 19.66 15.98 20.32 17 21 C17 20.01 17 19.02 17 18 C11.62774389 15.99317767 11.62774389 15.99317767 6 16 C4.02 17.32 2.04 18.64 0 20 C0 13.4 0 6.8 0 0 Z " fill="#631A91" transform="translate(0,0)"/>
<path d="M0 0 C0.99 0 1.98 0 3 0 C4.32 0 5.64 0 7 0 C7 6.6 7 13.2 7 20 C5.35 19.67 3.7 19.34 2 19 C1.34 19.33 0.68 19.66 0 20 C-4.73098344 20.5769492 -8.66262491 21.01118605 -12.5625 18.0625 C-14.45242002 14.03614865 -15.34003061 10.46087772 -15 6 C-13.22845027 2.79758318 -11.76632042 1.44365919 -8.625 -0.375 C-5.43495514 -1.13453449 -3.18245375 -0.69183777 0 0 Z " fill="#F2E5FD" transform="translate(146,16)"/>
<path d="M0 0 C2.1875 1.625 2.1875 1.625 3.1875 4.625 C3.76029236 11.7276253 3.76029236 11.7276253 1.3125 15.5625 C-2.17408203 18.9465355 -4.84842714 19.01466392 -9.55078125 18.984375 C-13.13770929 18.41443134 -14.68088894 16.42273951 -16.8125 13.625 C-18.56239713 10.12520575 -17.78642321 6.32327598 -16.8125 2.625 C-11.62461404 -2.83593258 -6.66162428 -3.25679409 0 0 Z " fill="#FAF0FD" transform="translate(111.8125,17.375)"/>
<path d="M0 0 C4.02755007 3.61446801 4.06428383 5.38570297 5 11 C0.38 11 -4.24 11 -9 11 C-8.67 10.01 -8.34 9.02 -8 8 C-5.36 8 -2.72 8 0 8 C-0.33 7.01 -0.66 6.02 -1 5 C-4.04300316 3.47849842 -6.654085 3.76100607 -10 4 C-12.31282587 7.46923881 -12.42478586 8.92205575 -12 13 C-11 15 -11 15 -9 16 C-5.04269405 16.42098999 -2.39731629 16.09065618 1 14 C1.99 15.485 1.99 15.485 3 17 C-0.72316639 19.79237479 -3.53845855 20.48182161 -8.0703125 20.28515625 C-10.9996279 19.85228171 -12.75643055 18.91363277 -15 17 C-16.8656461 13.94712456 -17.00170747 12.09561838 -16.9375 8.5 C-15.8177994 4.31978443 -14.33213164 2.6974399 -11 0 C-7.15390679 -1.28203107 -3.84856881 -1.12508564 0 0 Z " fill="#FAEFFD" transform="translate(39,16)"/>
<path d="M0 0 C3.49091601 1.2244697 5.07945225 2.8833417 7.31640625 5.8125 C7.6841187 8.6512401 7.80271429 10.83070151 7.62890625 13.625 C7.60634766 14.31787109 7.58378906 15.01074219 7.56054688 15.72460938 C7.50203286 17.42151573 7.41236105 19.11729861 7.31640625 20.8125 C5.99640625 20.8125 4.67640625 20.8125 3.31640625 20.8125 C2.98640625 15.5325 2.65640625 10.2525 2.31640625 4.8125 C-0.98359375 4.8125 -4.28359375 4.8125 -7.68359375 4.8125 C-7.68359375 10.0925 -7.68359375 15.3725 -7.68359375 20.8125 C-9.00359375 20.8125 -10.32359375 20.8125 -11.68359375 20.8125 C-11.71057797 18.37492587 -11.73042474 15.93765085 -11.74609375 13.5 C-11.75447266 12.80970703 -11.76285156 12.11941406 -11.77148438 11.40820312 C-11.80667972 4.12276696 -11.80667972 4.12276696 -9.18359375 1.0625 C-5.90721807 -0.57568784 -3.58500879 -0.2992703 0 0 Z " fill="#F6E9FA" transform="translate(59.68359375,15.1875)"/>
<path d="M0 0 C2 1.0625 2 1.0625 3 3 C3.50030235 6.93094707 3.5996142 9.1005787 1.375 12.4375 C-1.71685231 14.47161336 -3.36367425 14.60605429 -7 14 C-9.375 12.4375 -9.375 12.4375 -11 10 C-11.42213381 6.56262469 -11.60856522 4.17909511 -10 1.0625 C-6.75978228 -0.65886567 -3.58042244 -0.52960415 0 0 Z " fill="#3C2075" transform="translate(146,19)"/>
<path d="M0 0 C0.53625 0.309375 1.0725 0.61875 1.625 0.9375 C1.295 2.2575 0.965 3.5775 0.625 4.9375 C0.109375 4.6075 -0.40625 4.2775 -0.9375 3.9375 C-4.2108849 2.59457286 -6.87139145 2.67797344 -10.375 2.9375 C-12.67075603 5.23325603 -12.69839599 5.94592525 -13 9.0625 C-13.185625 10.980625 -13.185625 10.980625 -13.375 12.9375 C-9.96294404 15.03722674 -7.3449753 15.26833127 -3.375 14.9375 C-1.07269234 14.03918984 -1.07269234 14.03918984 0.625 12.9375 C0.625 14.2575 0.625 15.5775 0.625 16.9375 C-1.85518753 19.41768753 -2.76015951 19.26111558 -6.1875 19.3125 C-9.56365855 19.21980201 -11.33012784 18.95856244 -14.4375 17.5 C-17.2169799 13.82391368 -17.64383575 10.49141472 -17.375 5.9375 C-16.03434707 2.30985089 -14.77729545 1.20569697 -11.5625 -0.9375 C-7.11694108 -2.50652079 -4.23738677 -1.89567303 0 0 Z " fill="#FBEFFD" transform="translate(88.375,17.0625)"/>
<path d="M0 0 C2.4375 1.5625 2.4375 1.5625 4 4 C4 7.77684879 3.78395245 10.03513544 1.375 13 C-2.04776185 14.44116288 -4.44605372 13.85557966 -8 13 C-10 11 -10 11 -10.375 7.0625 C-10.29081697 4.1634469 -10.24906476 3.30654124 -8.375 1 C-5.296549 -0.29618989 -3.31123632 -0.48288863 0 0 Z " fill="#3B1D77" transform="translate(108,19)"/>
<path d="M0 0 C2.5625 2.0625 2.5625 2.0625 4 4 C3.01 4.66 2.02 5.32 1 6 C0.34 5.34 -0.32 4.68 -1 4 C-5.66228885 3.5359554 -5.66228885 3.5359554 -9.9375 5.125 C-11.52225401 7.92162472 -11.45947423 9.8493196 -11 13 C-9.48105194 15.09764165 -9.48105194 15.09764165 -7 16 C-3.97314468 15.82888749 -3.97314468 15.82888749 -1 15 C-0.21625 14.814375 0.5675 14.62875 1.375 14.4375 C1.91125 14.293125 2.4475 14.14875 3 14 C3.33 14.99 3.66 15.98 4 17 C0.15097205 20.34234298 -2.60957384 20.59284196 -7.58203125 20.39453125 C-10 20 -10 20 -13.125 18.1875 C-15.88731537 13.49156387 -16.09665446 9.30844331 -15 4 C-11.71857768 -1.87201889 -5.77107699 -1.86163774 0 0 Z " fill="#FAF0FC" transform="translate(15,16)"/>
<path d="M0 0 C0.99 0.66 1.98 1.32 3 2 C3 2.66 3 3.32 3 4 C1.35 4.66 -0.3 5.32 -2 6 C-2.33 10.95 -2.66 15.9 -3 21 C-3.99 21 -4.98 21 -6 21 C-6.08089542 18.22858283 -6.14044062 15.45952181 -6.1875 12.6875 C-6.22520508 11.50897461 -6.22520508 11.50897461 -6.26367188 10.30664062 C-6.27333984 9.54931641 -6.28300781 8.79199219 -6.29296875 8.01171875 C-6.3086792 7.31522217 -6.32438965 6.61872559 -6.34057617 5.90112305 C-5.89143917 3.39400486 -4.98030359 2.55626316 -3 1 C-2.01 0.67 -1.02 0.34 0 0 Z " fill="#FDF4FE" transform="translate(126,15)"/>
<path d="M0 0 C5.28 0.33 10.56 0.66 16 1 C15.01 1.495 15.01 1.495 14 2 C14 2.66 14 3.32 14 4 C13.38125 4.144375 12.7625 4.28875 12.125 4.4375 C9.96741678 4.93152225 9.96741678 4.93152225 8 6 C2.57692308 6.46153846 2.57692308 6.46153846 0.125 4.5 C-0.24625 4.005 -0.6175 3.51 -1 3 C-0.67 2.01 -0.34 1.02 0 0 Z " fill="#4F217E" transform="translate(28,27)"/>
<path d="M0 0 C3.625 0.1875 3.625 0.1875 6.625 2.1875 C6.625 3.1775 6.625 4.1675 6.625 5.1875 C3.985 5.1875 1.345 5.1875 -1.375 5.1875 C-1.375 5.8475 -1.375 6.5075 -1.375 7.1875 C-2.035 7.1875 -2.695 7.1875 -3.375 7.1875 C-3.375 6.5275 -3.375 5.8675 -3.375 5.1875 C-4.035 5.1875 -4.695 5.1875 -5.375 5.1875 C-4.25703267 0.23650181 -4.25703267 0.23650181 0 0 Z " fill="#482476" transform="translate(32.375,18.8125)"/>
<path d="M0 0 C5.28 0.66 10.56 1.32 16 2 C13.11814179 4.88185821 11.08323128 5.88716341 7 6.3125 C3.66713259 5.96532631 2.30996359 5.39880834 0 3 C0 2.01 0 1.02 0 0 Z " fill="#542B7F" transform="translate(75,27)"/>
<path d="M0 0 C0.66 0.33 1.32 0.66 2 1 C2 2.98 2 4.96 2 7 C2.99 7.33 3.98 7.66 5 8 C4.67 10.97 4.34 13.94 4 17 C3.67 17 3.34 17 3 17 C2.34 15.02 1.68 13.04 1 11 C-0.32 11 -1.64 11 -3 11 C-2.01 9.68 -1.02 8.36 0 7 C-1.32 5.68 -2.64 4.36 -4 3 C-2.68 3 -1.36 3 0 3 C0 2.01 0 1.02 0 0 Z " fill="#411D75" transform="translate(18,12)"/>
<path d="M0 0 C1.33804688 0.04060547 1.33804688 0.04060547 2.703125 0.08203125 C3.37859375 0.11683594 4.0540625 0.15164063 4.75 0.1875 C5.08 1.1775 5.41 2.1675 5.75 3.1875 C3.9865625 3.0946875 3.9865625 3.0946875 2.1875 3 C-2.28960301 2.97605827 -5.2741888 4.1995944 -9.25 6.1875 C-9.25 3.1875 -9.25 3.1875 -7.578125 1.51171875 C-4.80639822 -0.06481712 -3.16147376 -0.12479502 0 0 Z " fill="#402276" transform="translate(33.25,12.8125)"/>
<path d="M0 0 C3 1 3 1 4 3 C7.27555608 3.47001033 7.27555608 3.47001033 11.0625 3.625 C12.99802734 3.73714844 12.99802734 3.73714844 14.97265625 3.8515625 C16.47119141 3.92503906 16.47119141 3.92503906 18 4 C18 4.33 18 4.66 18 5 C16.86820313 4.98839844 15.73640625 4.97679687 14.5703125 4.96484375 C13.08854331 4.95546546 11.60677235 4.9463653 10.125 4.9375 C9.37863281 4.92912109 8.63226563 4.92074219 7.86328125 4.91210938 C3.80154422 4.79311916 3.80154422 4.79311916 0 6 C0 4.02 0 2.04 0 0 Z " fill="#7E53A6" transform="translate(26,23)"/>
<path d="M0 0 C0 4.62 0 9.24 0 14 C-0.33 14 -0.66 14 -1 14 C-1.33 12.02 -1.66 10.04 -2 8 C-2.33 8 -2.66 8 -3 8 C-3 5.69 -3 3.38 -3 1 C-1 0 -1 0 0 0 Z " fill="#321769" transform="translate(119,22)"/>
<path d="M0 0 C3.63 0.33 7.26 0.66 11 1 C10.01 2.485 10.01 2.485 9 4 C5.79899154 4.33694826 3.07140568 3.91004613 0 3 C0 2.01 0 1.02 0 0 Z " fill="#671E94" transform="translate(75,27)"/>
<path d="M0 0 C2.475 0.99 2.475 0.99 5 2 C4.67 3.32 4.34 4.64 4 6 C1.33333333 4.66666667 -1.33333333 3.33333333 -4 2 C-2.68 2 -1.36 2 0 2 C0 1.34 0 0.68 0 0 Z " fill="#F4E4FB" transform="translate(85,16)"/>
<path d="M0 0 C0.66 0.33 1.32 0.66 2 1 C2.59355614 3.64860427 2.74209269 6.29197322 3 9 C-0.68802044 7.77065985 -1.72356973 6.06140622 -4 3 C-2.68 3 -1.36 3 0 3 C0 2.01 0 1.02 0 0 Z " fill="#4B2381" transform="translate(18,12)"/>
<path d="M0 0 C0 0.66 0 1.32 0 2 C-2.5 3.625 -2.5 3.625 -5 5 C-5.66 4.34 -6.32 3.68 -7 3 C-7 2.34 -7 1.68 -7 1 C-3.375 -1.125 -3.375 -1.125 0 0 Z " fill="#F1E2F6" transform="translate(19,31)"/>
<path d="M0 0 C0.86625 0.3403125 0.86625 0.3403125 1.75 0.6875 C0.574375 1.2753125 0.574375 1.2753125 -0.625 1.875 C-3.60156418 3.93024669 -4.23823563 5.28429258 -5.25 8.6875 C-5.58 8.6875 -5.91 8.6875 -6.25 8.6875 C-6.5 5.875 -6.5 5.875 -6.25 2.6875 C-4.12558468 0.33546876 -3.18427034 -0.44225977 0 0 Z " fill="#382069" transform="translate(104.25,19.3125)"/>
<path d="M0 0 C0.99 0.99 1.98 1.98 3 3 C2.01 3.66 1.02 4.32 0 5 C-0.99 4.67 -1.98 4.34 -3 4 C-3 3.34 -3 2.68 -3 2 C-2.01 1.34 -1.02 0.68 0 0 Z " fill="#F1E0FB" transform="translate(39,30)"/>
<path d="M0 0 C0.99 0 1.98 0 3 0 C3 0.66 3 1.32 3 2 C4.65 2.33 6.3 2.66 8 3 C5 4 5 4 1 4 C0.67 2.68 0.34 1.36 0 0 Z " fill="#692294" transform="translate(29,19)"/>
</svg>
